<svg xmlns="http://www.w3.org/2000/svg" width="25" height="24" fill="none" viewBox="0 0 25 24" id="amazon-prime-video">
  <rect width="24" height="24" x=".463" fill="url(#paint0_linear_302_5255)" rx="8"></rect>
  <path fill="#fff" fill-rule="evenodd" d="M11.6444 7.71111C11.6444 8.10384 11.3261 8.42222 10.9333 8.42222C10.5406 8.42222 10.2222 8.10384 10.2222 7.71111C10.2222 7.31838 10.5406 7 10.9333 7C11.3261 7 11.6444 7.31838 11.6444 7.71111ZM19.3266 8.60302C19.6183 8.71642 20 8.99064 20 9.48897C20 9.98872 19.7758 10.3648 19.4187 10.591C19.1007 10.7926 18.7214 10.8479 18.4176 10.8579C18.2933 10.862 18.1707 10.8588 18.0542 10.8512C18.1571 11.0011 18.2827 11.0786 18.4396 11.0904C18.7038 11.11 18.8676 11.0472 18.9554 10.9986C19.0017 10.973 19.032 10.9484 19.0471 10.9346C19.0547 10.9278 19.0583 10.9238 19.0581 10.9241L19.0547 10.928L19.0508 10.9327L19.0483 10.9359L19.047 10.9376L19.0462 10.9386L19.0458 10.9391C19.0456 10.9393 19.0455 10.9396 19.4667 11.2667C19.8879 11.5938 19.8877 11.5941 19.8875 11.5943L19.8871 11.5948L19.8863 11.5958L19.8845 11.598L19.8806 11.603L19.8711 11.6145C19.8639 11.6231 19.8552 11.633 19.8449 11.6443C19.8243 11.6669 19.7971 11.6945 19.7631 11.7254C19.695 11.787 19.5987 11.8618 19.4717 11.932C19.2132 12.0751 18.8436 12.19 18.3604 12.1541C17.801 12.1125 17.3968 11.7967 17.149 11.4163C16.9083 11.0468 16.8 10.6002 16.8 10.2001C16.8 9.69653 16.9947 9.29 17.3005 9.00123C17.5946 8.72341 17.9671 8.57599 18.3123 8.51845C18.6544 8.46145 19.0207 8.48405 19.3266 8.60302ZM18.0302 9.7793C18.1446 9.79007 18.265 9.79573 18.3824 9.79185C18.6119 9.78425 18.766 9.74183 18.8479 9.68997C18.8777 9.67108 18.9073 9.64939 18.9226 9.59083C18.8261 9.55817 18.6677 9.5406 18.4877 9.5706C18.2996 9.60195 18.1387 9.67675 18.0329 9.77671L18.0302 9.7793ZM18.9865 9.61956C18.9863 9.61961 18.9844 9.61851 18.9815 9.61611C18.9852 9.6183 18.9867 9.61951 18.9865 9.61956ZM19.7825 13.667C20.3031 14.1876 19.1462 16.5558 18.7747 16.4137C18.5884 16.3425 18.7273 15.9272 18.8764 15.4814C19.0288 15.0259 19.1918 14.5385 19.0295 14.3537C18.8585 14.1593 18.3081 14.2094 17.8204 14.2538C17.3917 14.2929 17.0116 14.3275 16.9805 14.1876C16.8841 13.7537 19.262 13.1464 19.7825 13.667ZM5.07622 14.078C6.43286 14.6819 9.14427 15.8889 12 15.8889C13.8037 15.8889 15.4728 15.4154 16.6618 15.078C17.5822 14.8168 18.215 14.6373 18.4 14.8222C18.8238 15.246 15.9111 16.9556 12 16.9556C7.27854 16.9556 4.03409 13.9658 4.17778 13.7556C4.21835 13.6962 4.54241 13.8405 5.07622 14.078ZM10.4 8.77778V11.9778H11.4667V8.77778H10.4ZM7.91111 9.84445V8.6H8.97778V8.65185C9.26698 8.59954 9.57712 8.59979 9.82318 8.59998L9.86667 8.60001V9.66667C9.48087 9.66667 9.22419 9.67264 9.05754 9.72819C9.01286 9.74308 8.99408 9.75586 8.98819 9.76065C8.98459 9.76962 8.97778 9.79402 8.97778 9.84445V11.9778H7.91111V9.84445ZM8.99035 9.75644C8.99043 9.75652 8.98998 9.75753 8.98878 9.75925C8.98968 9.75722 8.99028 9.75636 8.99035 9.75644ZM8.98672 9.76191L8.98597 9.76267C8.98596 9.76267 8.98618 9.7624 8.98672 9.76191ZM5.95556 9.66667C5.73518 9.66667 5.42222 9.90495 5.42222 10.3778C5.42222 10.8506 5.73518 11.0889 5.95556 11.0889C6.17594 11.0889 6.48889 10.8506 6.48889 10.3778C6.48889 9.90495 6.17594 9.66667 5.95556 9.66667ZM5.06667 8.89522C5.31304 8.71123 5.61426 8.6 5.95556 8.6C6.91338 8.6 7.55556 9.47603 7.55556 10.3778C7.55556 11.2795 6.91338 12.1556 5.95556 12.1556C5.61426 12.1556 5.31304 12.0443 5.06667 11.8604V13.0444H4V8.6H5.06667V8.89522ZM11.8222 8.6V11.9778H12.8889V9.8L12.8962 9.79664C13.0546 9.72466 13.2427 9.66667 13.4222 9.66667C13.5085 9.66667 13.5649 9.6799 13.6 9.69339V11.9778H14.6667V9.80001L14.674 9.79664C14.8324 9.72466 15.0204 9.66667 15.2 9.66667C15.2863 9.66667 15.3426 9.6799 15.3778 9.69339V11.9778H16.4444V9.48889C16.4444 9.42104 16.4315 9.35381 16.4063 9.29082C16.398 9.27022 16.3883 9.24942 16.3782 9.22969C16.3648 9.2037 16.347 9.17232 16.3238 9.13749C16.2773 9.0679 16.2086 8.98328 16.1103 8.90139C15.9053 8.73054 15.6059 8.6 15.2 8.6C14.8107 8.6 14.4654 8.71978 14.2326 8.82559L14.2316 8.82604C14.0333 8.69361 13.766 8.6 13.4222 8.6C13.2311 8.6 13.0507 8.62886 12.8889 8.67075V8.6H11.8222Z" clip-rule="evenodd"></path>
  <defs>
    <linearGradient id="paint0_linear_302_5255" x1=".463" x2="24.463" y1="12" y2="12" gradientUnits="userSpaceOnUse">
      <stop stop-color="#ED6D6B"></stop>
      <stop offset="1" stop-color="#F0B076"></stop>
    </linearGradient>
  </defs>
</svg>
